<svg width="44" height="44" viewBox="0 0 44 44" fill="none" xmlns="http://www.w3.org/2000/svg">
<path d="M6.02688 19.2865H39.7315C41.9835 19.2865 43.8601 17.9241 43.8601 16.2892C43.8601 14.6543 41.9835 13.2919 39.7315 13.2919H6.02688C3.7749 13.2919 1.89825 14.6543 1.89825 16.2892C1.89825 17.9241 3.69984 19.2865 6.02688 19.2865Z" fill="#8BD80A"/>
<path d="M6.4271 32.2747H27.3422C29.8124 32.2747 31.871 30.9123 31.871 29.2774C31.871 27.6425 29.8124 26.2801 27.3422 26.2801H6.4271C3.95682 26.2801 1.89825 27.6425 1.89825 29.2774C1.89825 30.9668 3.95682 32.2747 6.4271 32.2747Z" fill="#8BD80A"/>
<path d="M18.4162 6.29829H39.3313C41.8016 6.29829 43.8601 4.93589 43.8601 3.30102C43.8601 1.66614 41.8016 0.303741 39.3313 0.303741H18.4162C15.946 0.303741 13.8874 1.66614 13.8874 3.30102C13.8874 4.99039 15.946 6.29829 18.4162 6.29829Z" fill="#8BD80A"/>
</svg>
