<svg width="26" height="28" viewBox="0 0 26 28" fill="none" xmlns="http://www.w3.org/2000/svg">
<path d="M2.80744 17.4247C6.02962 20.6852 11.0591 21.2005 14.8483 18.6877L22.6813 26.614C22.9792 26.9155 23.3743 27.0801 23.7956 27.0801C24.2169 27.0801 24.612 26.9141 24.9086 26.614L25.4651 26.0508C25.7631 25.7494 25.9258 25.3496 25.9258 24.9246C25.9258 24.4983 25.7617 24.0985 25.4651 23.797L17.6321 15.8708C20.1154 12.0365 19.6061 6.94708 16.3839 3.68653C12.6407 -0.101279 6.55069 -0.101279 2.80744 3.68653C-0.935813 7.47435 -0.935813 13.6369 2.80744 17.4247ZM16.8604 10.6047C16.8604 14.6582 13.6014 17.9559 9.59569 17.9559C5.58994 17.9559 2.331 14.6582 2.331 10.6047C2.331 6.5513 5.58994 3.25357 9.59569 3.25357C13.6014 3.25357 16.8604 6.5513 16.8604 10.6047Z" fill="#8BD80A"/>
</svg>
